<?xml version="1.0" encoding="iso-8859-1"?>
<!-- Generator: Adobe Illustrator 19.0.0, SVG Export Plug-In . SVG Version: 6.00 Build 0)  -->
<svg version="1.1" id="Capa_1" xmlns="http://www.w3.org/2000/svg" xmlns:xlink="http://www.w3.org/1999/xlink" x="0px" y="0px"
	 viewBox="0 0 512 512" style="enable-background:new 0 0 512 512;" xml:space="preserve">
<path style="fill:#57555C;" d="M287,362h-92c-6.299,0-12.297,4.2-14.099,10.201l-30,90C147.598,471.799,154.797,482,165,482h122
	c8.401,0,15-6.599,15-15v-90C302,368.599,295.401,362,287,362z"/>
<path style="fill:#3C3A41;" d="M302,377v90c0,8.401-6.599,15-15,15h-46V362h46C295.401,362,302,368.599,302,377z"/>
<path style="fill:#787780;" d="M302,467c0,8.401-6.599,15-15,15H105c-8.401,0-15-6.599-15-15s6.599-15,15-15h182
	C295.401,452,302,458.599,302,467z"/>
<path style="fill:#57555C;" d="M302,467c0,8.401-6.599,15-15,15h-46v-30h46C295.401,452,302,458.599,302,467z"/>
<path style="fill:#CAE8F9;" d="M467,45v270.801H15V45c0-16.5,13.499-30,30-30h392C453.501,15,467,28.5,467,45z"/>
<path style="fill:#B7E0F6;" d="M467,45v270.801H241V15h196C453.501,15,467,28.5,467,45z"/>
<path style="fill:#57555C;" d="M437,0H45C20.098,0,0,20.099,0,45v255.801l37.5,30h416.602l27.898-30V45C482,20.099,461.902,0,437,0z
	 M452,300.801H30V45c0-8.401,6.599-15,15-15h392c8.401,0,15,6.599,15,15V300.801z"/>
<path style="fill:#3C3A41;" d="M482,45v255.801l-27.898,30H241v-30h211V45c0-8.401-6.599-15-15-15H241V0h196
	C461.902,0,482,20.099,482,45z"/>
<path style="fill:#787780;" d="M0,300.201V347c0,24.901,20.098,45,45,45h384.2c29.099,0,52.8-23.699,52.8-52.8v-38.999L0,300.201
	L0,300.201z"/>
<path style="fill:#57555C;" d="M482,300.201V339.2c0,29.101-23.701,52.8-52.8,52.8H241v-91.799H482z"/>
<g>
	<path style="fill:#17ACE8;" d="M392,75c0,8.401-6.599,15-15,15H75c-8.401,0-15-6.599-15-15s6.599-15,15-15h302
		C385.401,60,392,66.599,392,75z"/>
	<path style="fill:#17ACE8;" d="M226,272H75c-8.291,0-15-6.709-15-15V135c0-8.291,6.709-15,15-15h151c8.291,0,15,6.709,15,15v122
		C241,265.291,234.291,272,226,272z"/>
</g>
<path style="fill:#1689FC;" d="M377,90H241V60h136c8.401,0,15,6.599,15,15S385.401,90,377,90z"/>
<rect x="287" y="224" style="fill:#CAE8F9;" width="210" height="243"/>
<path style="fill:#787780;" d="M469.703,209.001H313.4l-41.4,30V452l50.698,30H479l33-30V239.001L469.703,209.001z M482,452H302
	V239.001h180V452z"/>
<rect x="392" y="224" style="fill:#B7E0F6;" width="105" height="243"/>
<polygon style="fill:#57555C;" points="512,239.001 512,452 479.001,482 392,482 392,452 482,452 482,239.001 392,239.001 
	392,209.001 469.703,209.001 "/>
<path style="fill:#787780;" d="M467,182H317c-24.902,0-45,20.099-45,45v12.001h240V227C512,202.099,491.902,182,467,182z"/>
<path style="fill:#57555C;" d="M512,227v12.001H392V182h75C491.902,182,512,202.099,512,227z"/>
<path style="fill:#787780;" d="M272,452v15c0,24.901,20.098,45,45,45h150c24.902,0,45-20.099,45-45v-15H272z"/>
<path style="fill:#57555C;" d="M392,452h120v15c0,24.901-20.098,45-45,45h-75V452z"/>
<path style="fill:#32D736;" d="M447.499,327.499L392,383l-4.501,4.499C384.8,390.5,380.9,392,377,392s-7.8-1.5-10.499-4.501l-30-30
	c-6.002-5.7-6.002-15.298,0-20.999c5.702-6,15.297-6,20.999,0l19.5,19.199l15-15l34.501-34.199c5.702-6,15.297-6,20.999,0
	C453.501,312.201,453.501,321.799,447.499,327.499z"/>
<path style="fill:#10BB67;" d="M447.499,327.499L392,383v-42.301l34.501-34.199c5.702-6,15.297-6,20.999,0
	C453.501,312.201,453.501,321.799,447.499,327.499z"/>
<path style="fill:#1689FC;" d="M393,136c0,8.401-6.599,15-15,15h-90c-8.401,0-15-6.599-15-15s6.599-15,15-15h90
	C386.401,121,393,127.599,393,136z"/>
<g>
</g>
<g>
</g>
<g>
</g>
<g>
</g>
<g>
</g>
<g>
</g>
<g>
</g>
<g>
</g>
<g>
</g>
<g>
</g>
<g>
</g>
<g>
</g>
<g>
</g>
<g>
</g>
<g>
</g>
</svg>
